<svg width="267" height="314" xmlns="http://www.w3.org/2000/svg"><defs><linearGradient x1="37.815%" y1="101.865%" x2="62.186%" y2="-1.866%" id="a"><stop stop-color="gray" stop-opacity=".25" offset="0%"/><stop stop-color="gray" stop-opacity=".12" offset="54%"/><stop stop-color="gray" stop-opacity=".1" offset="100%"/></linearGradient><linearGradient x1="38.659%" y1="102.398%" x2="63.351%" y2="-1.313%" id="b"><stop stop-color="gray" stop-opacity=".25" offset="0%"/><stop stop-color="gray" stop-opacity=".12" offset="54%"/><stop stop-color="gray" stop-opacity=".1" offset="100%"/></linearGradient><linearGradient x1="49.999%" y1="99.994%" x2="49.999%" y2="0%" id="c"><stop stop-color="gray" stop-opacity=".25" offset="0%"/><stop stop-color="gray" stop-opacity=".12" offset="54%"/><stop stop-color="gray" stop-opacity=".1" offset="100%"/></linearGradient></defs><g fill-rule="nonzero" fill="none"><g opacity=".5"><path d="M151.227.628L5.959.983C2.663.99-.004 3.678 0 6.99l.662 269a6.012 6.012 0 0 0 1.76 4.236 5.957 5.957 0 0 0 4.227 1.746l145.268-.355c3.296-.009 5.961-2.699 5.955-6.01l-.674-269c-.011-3.305-2.681-5.979-5.971-5.979z" fill="url(#a)"/><path d="M15.76.728l125.683-.31c7.533-.018 13.655 6.074 13.674 13.607l.607 250.087c.019 7.533-6.073 13.655-13.606 13.673l-125.683.31c-7.533.018-13.655-6.074-13.673-13.607L2.154 14.4C2.136 6.868 8.228.747 15.761.728z" fill="#FFF"/><path d="M151.431 77.26l-.152-64.054c-.009-3.223-2.615-5.828-5.823-5.822l-28.412.069c-.898 6.08-6.076 10.592-12.195 10.627l-52.833.13c-6.119-.005-11.32-4.492-12.247-10.568l-27.987.069c-3.208.009-5.801 2.627-5.795 5.85l.157 64.593.453 187.192c.015 3.222 2.627 5.822 5.834 5.81l133.675-.327c3.197-.018 5.779-2.626 5.779-5.838L151.43 77.26z" fill="#BBB"/><path d="M61.256 11.105l31.944-.482a1.07 1.07 0 0 1 .032 2.139l-31.944.482a1.07 1.07 0 0 1-1.085-1.054 1.07 1.07 0 0 1 1.053-1.085z" fill="#DBDBDB"/><ellipse fill="#DBDBDB" transform="rotate(-.86 101.526 11.352)" cx="101.526" cy="11.352" rx="1.279" ry="1.285"/><path fill="#E0E0E0" d="M66.609 42.107h71.216v5.704H66.609zM66.609 53.516h71.216v5.704H66.609z"/><ellipse fill="#F5F5F5" cx="31.315" cy="48.311" rx="13.45" ry="13.576"/><path d="M37.11 57.814H25.444a3.472 3.472 0 0 0-2.839 1.515 17.427 17.427 0 0 0 17.244.096 3.47 3.47 0 0 0-2.74-1.611z" fill="#1C75BC"/><path d="M25.54 48.657s-1.708 4.996-2.642 4.528c0 0 8.999 7.808 16.943 0a23.786 23.786 0 0 0-3.42-4.528H25.54z" fill="#333"/><ellipse fill="#333" cx="31.307" cy="48.19" rx="6.685" ry="6.716"/><path d="M28.957 55.486h4.664v1.82a2.146 2.146 0 0 1-2.141 2.152h-.401a2.146 2.146 0 0 1-2.142-2.152v-1.82h.02z" fill="#000" opacity=".1"/><path d="M29.45 55.373h3.682c.272 0 .493.222.493.495v1.338a2.146 2.146 0 0 1-2.141 2.151h-.401a2.146 2.146 0 0 1-2.126-2.151V55.88a.497.497 0 0 1 .494-.507z" fill="#FDA57D"/><path d="M28.97 56.05a6.68 6.68 0 0 0 4.663 0v-.544H28.97v.544z" fill="#000" opacity=".1"/><ellipse fill="#FDA57D" cx="31.307" cy="49.648" rx="6.685" ry="6.716"/><path d="M24.92 47.098h12.743s-1.086-5.169-5.907-4.834c-4.82.334-6.837 4.834-6.837 4.834z" fill="#333"/><ellipse fill="#FDA57D" cx="24.763" cy="49.362" rx="1" ry="1.172"/><ellipse fill="#FDA57D" cx="37.82" cy="49.362" rx="1" ry="1.172"/><path d="M24.92 47.275h12.743s-1.086-5.168-5.907-4.834c-4.82.334-6.837 4.834-6.837 4.834z" fill="#000" opacity=".1"/><path fill="#E0E0E0" d="M66.609 85.559h71.216v5.704H66.609zM66.609 96.968h71.216v5.704H66.609z"/><ellipse fill="#E0E0E0" cx="31.315" cy="91.763" rx="13.45" ry="13.576"/><path fill="#E0E0E0" d="M66.609 129.011h71.216v5.704H66.609zM66.609 140.42h71.216v5.704H66.609z"/><ellipse fill="#E0E0E0" cx="31.315" cy="135.215" rx="13.45" ry="13.576"/><path fill="#E0E0E0" d="M66.609 172.463h71.216v5.704H66.609zM66.609 183.872h71.216v5.704H66.609z"/><ellipse fill="#E0E0E0" cx="31.315" cy="178.667" rx="13.45" ry="13.576"/><path fill="#E0E0E0" d="M66.609 215.915h71.216v5.704H66.609zM66.609 227.324h71.216v5.704H66.609z"/><ellipse fill="#E0E0E0" cx="31.315" cy="222.119" rx="13.45" ry="13.576"/></g><path d="M245.35 34l-145.39.354c-3.299.01-5.967 2.7-5.96 6.01l.662 267.654a6.009 6.009 0 0 0 1.762 4.237 5.965 5.965 0 0 0 4.23 1.745l145.394-.354c3.293-.014 5.954-2.698 5.952-6.002l-.662-267.654a6.009 6.009 0 0 0-1.758-4.24 5.965 5.965 0 0 0-4.23-1.75z" fill="url(#b)"/><path d="M109.516 33.14l126.1-.308c7.533-.019 13.655 6.073 13.673 13.606l.61 249.53c.019 7.533-6.073 13.655-13.607 13.673l-126.1.308c-7.533.019-13.654-6.073-13.673-13.606l-.61-249.53c-.018-7.533 6.074-13.655 13.607-13.673z" fill="#FFF"/><path d="M246 109.566l-.153-63.808c-.009-3.187-2.625-5.765-5.845-5.758l-28.528.068c-.901 6.013-6.1 10.477-12.24 10.512l-53.03.127c-6.142-.004-11.363-4.443-12.294-10.452l-28.093.068c-3.22.009-5.824 2.598-5.817 5.786l.157 63.891" fill="#FAFAFA"/><path d="M100 109.895l.454 187.28c.009 3.225 2.62 5.832 5.833 5.825l133.908-.326c3.213-.01 5.812-2.629 5.805-5.853L245.542 109" fill="#FAFAFA"/><path fill="#E0E0E0" d="M113 67h28v28h-28z"/><path d="M.149.073H188v64.622H.149z" opacity=".5" transform="translate(79 118)" fill="url(#c)"/><path fill="#FFF" d="M81 121h184v59H81z"/><path fill="#1C75BC" d="M155 143h71v6h-71zM155 154h71v6h-71z"/><path fill="#E0E0E0" d="M155 206h71v6h-71z"/><path fill="#EEE" d="M155 217h71v6h-71z"/><path fill="#1C75BC" d="M174 89h32v10h-32z"/><circle fill="#F5F5F5" cx="119.5" cy="149.5" r="13.5"/><path d="M125.145 158h-12.181a3.628 3.628 0 0 0-2.964 1.576 18.248 18.248 0 0 0 18 .1 3.624 3.624 0 0 0-2.855-1.676z" fill="#1C75BC"/><path d="M112.652 150s-1.714 4.997-2.652 4.53c0 0 9.03 7.808 17 0a23.8 23.8 0 0 0-3.432-4.53h-10.916z" fill="#333"/><circle fill="#333" cx="119" cy="150" r="7"/><path d="M116.021 156H121v1.834c0 1.196-1.023 2.166-2.286 2.166h-.428c-1.263 0-2.286-.97-2.286-2.166V156h.021z" fill="#000" opacity=".1"/><path d="M116.547 156h3.927c.29 0 .526.223.526.498v1.334a2.108 2.108 0 0 1-.669 1.534 2.35 2.35 0 0 1-1.62.634h-.427c-1.261 0-2.284-.969-2.284-2.164v-1.333c0-.133.055-.26.154-.353a.541.541 0 0 1 .372-.146l.021-.004z" fill="#FDA57D"/><path d="M116 157.578a7.62 7.62 0 0 0 5 0V157h-5v.578z" fill="#000" opacity=".1"/><circle fill="#FDA57D" cx="119" cy="151" r="7"/><path d="M112 149h13s-1.109-5.329-6.025-4.984C114.058 144.361 112 149 112 149z" fill="#333"/><ellipse fill="#FDA57D" cx="111.5" cy="151" rx="1" ry="1"/><ellipse fill="#FDA57D" cx="125.5" cy="151" rx="1" ry="1"/><path d="M112 149h13s-1.109-5.329-6.025-4.984C114.058 144.361 112 149 112 149z" fill="#000" opacity=".1"/><circle fill="#E0E0E0" cx="128.5" cy="213.5" r="13.5"/><circle fill="#E0E0E0" cx="128.5" cy="265.5" r="13.5"/><path fill="#E0E0E0" d="M155 256h71v6h-71z"/><path fill="#EEE" d="M155 268h71v6h-71z"/><path fill="#E0E0E0" d="M155 66h71v6h-71zM155 78h71v6h-71z"/><path d="M155.167 43.5l32.041-.48a1.067 1.067 0 1 1 .032 2.135v-.001l-32.04.48a1.067 1.067 0 1 1-.032-2.135v.001z" fill="#DBDBDB"/><ellipse fill="#DBDBDB" transform="rotate(-.86 195.552 43.75)" cx="195.552" cy="43.751" rx="1.283" ry="1.283"/></g></svg>
